<svg class="star-svg" width="200px" height="200px" viewBox="-4.5 0 32 32" xmlns="http://www.w3.org/2000/svg">
    <title>star-alt</title>
    <path d="M5.52 26.96c-0.4 0-0.8-0.12-1.080-0.32-1.68-1.2-0.28-5.32 0.68-7.6-2.12-1.32-5.68-3.84-5.040-5.76 0.4-1.2 2.080-1.76 5.28-1.76 0.84 0 1.64 0.040 2.16 0.080 0.56-2.44 1.88-6.56 3.92-6.56s3.36 4.16 3.92 6.56c0.56-0.040 1.32-0.080 2.16-0.080 3.2 0 4.88 0.56 5.28 1.76 0.64 1.96-2.92 4.48-5.040 5.76 0.96 2.28 2.36 6.4 0.68 7.6-0.28 0.2-0.68 0.32-1.080 0.32-1.8 0-4.64-2.24-5.96-3.32-1.24 1.080-4.080 3.32-5.88 3.32v0zM11.44 21.68c0.2 0 0.4 0.080 0.56 0.2 1.56 1.4 4.28 3.4 5.4 3.4 0.080 0 0.12 0 0.12 0 0.36-0.44-0.2-3.24-1.52-6.24-0.16-0.4-0.040-0.84 0.36-1.080 2.84-1.64 4.96-3.6 4.92-4.2v0c0 0-0.48-0.6-3.68-0.6-1.44 0-2.72 0.12-2.76 0.12-0.44 0.040-0.8-0.24-0.92-0.64-0.68-3.2-1.88-5.84-2.44-5.96-0.6 0.080-1.8 2.72-2.48 5.92-0.080 0.4-0.48 0.72-0.92 0.64 0 0-1.28-0.12-2.76-0.12-3.2 0.040-3.64 0.64-3.64 0.64-0.040 0.56 2.080 2.52 4.92 4.16 0.36 0.2 0.52 0.68 0.36 1.080-1.32 3.040-1.92 5.88-1.52 6.28 0 0 0.040 0 0.080 0 1.12 0 3.8-2 5.4-3.4 0.12-0.16 0.32-0.2 0.52-0.2z"></path>
  </svg>
